<svg version="1.1" id="Layer_1" xmlns:x="ns_extend;" xmlns:i="ns_ai;" xmlns:graph="ns_graphs;" xmlns="http://www.w3.org/2000/svg" xmlns:xlink="http://www.w3.org/1999/xlink" x="0px" y="0px" viewBox="0 0 158.7 45" style="enable-background:new 0 0 158.7 45;" xml:space="preserve">
 <style type="text/css">
  .st0{fill:#C4242B;}
	.st1{fill:#FFFFFF;}
 </style>
 <metadata>
  <sfw xmlns="ns_sfw;">
   <slices>
   </slices>
   <sliceSourceBounds bottomLeftOrigin="true" height="45" width="158.7" x="98.3" y="-216.4">
   </sliceSourceBounds>
  </sfw>
 </metadata>
 <g>
  <path class="st0" d="M100,13.2l-2.6-4.4L92.7,11l-2.6-4.4l-4.7,2.2l-2.6-4.4l-4.7,2.2l-2.6-4.4l-4.7,2.2L68.3,0l-4.7,2.2L53.7,34
		l12,3.6c0.8-2.6,3.3-4.4,6.1-4.4c3.5,0,6.4,2.8,6.4,6.3l0,0.1c0,0.6,0,1.1-0.2,1.7L90.2,45L100,13.2">
  </path>
  <path class="st1" d="M64,31.4c-0.6-0.1-1.1-0.6-1.1-1.3V14.5c0-0.7,0.6-1.3,1.3-1.3c0,0,0,0,0,0h11.4c0.3,0,0.6,0,0.9,0.1
		c2.4,0.4,4.2,2.5,4.2,5v11.8c0,0.3-0.1,0.7-0.4,0.9c-0.3,0.3-0.7,0.4-1.2,0.4c-0.6-0.1-1.1-0.6-1.1-1.3V18.3c0-1.4-1.1-2.5-2.5-2.5
		c0,0,0,0,0,0h-2.5v14.3c0,0.7-0.6,1.3-1.3,1.3c-0.1,0-0.2,0-0.2,0c-0.6-0.1-1.1-0.6-1.1-1.3V15.8h-5v14.3c0,0.3-0.1,0.7-0.4,0.9
		C64.9,31.3,64.4,31.4,64,31.4 M82.9,38.1c-0.6-0.1-1.1-0.6-1.1-1.3c0-0.4,0.1-0.7,0.4-0.9c0.2-0.2,0.6-0.4,0.9-0.4
		c1.1,0,2.1-0.7,2.4-1.8l1.4-4.5l-4.4-14.6c-0.2-0.7,0.2-1.4,0.9-1.6c0,0,0,0,0,0c0.7-0.2,1.4,0.2,1.6,0.9l3.3,10.9L91.6,14
		c0.2-0.6,0.8-1,1.5-0.9l0.1,0c0.7,0.2,1.1,1,0.9,1.6l-4.6,15l-1.4,4.8c-0.4,1.1-1,2-1.8,2.6c-0.9,0.7-2,1-3.1,1
		C83.1,38.2,83,38.2,82.9,38.1 M2.7,28.5h2.6c1.4,0,2.6-1.1,2.6-2.6v-7.5c0-1.2-0.9-2.3-2.1-2.5c-0.1,0-0.3,0-0.4,0l-2.6,0L2.7,28.5
		L2.7,28.5z M1.1,31.2C0.5,31.1,0,30.5,0,29.9V6.6c0-0.4,0.1-0.7,0.4-1c0.3-0.3,0.8-0.4,1.2-0.4C2.3,5.4,2.7,6,2.7,6.6v6.6h2.6
		c2.9,0,5.3,2.3,5.3,5.2c0,0,0,0,0,0l0,7.5c0,2.9-2.4,5.2-5.3,5.2H1.4C1.3,31.2,1.2,31.2,1.1,31.2L1.1,31.2z M19.9,15.8
		c-0.1,0-0.3,0-0.4,0c-1.4,0-2.6,1.1-2.6,2.6v7.8c0,1.4,1.1,2.6,2.6,2.6c0,0,0,0,0,0c1.4,0,2.6-1.1,2.6-2.6l0-7.8
		C22,17.1,21.1,16,19.9,15.8 M18.5,31.3c-2.5-0.4-4.4-2.6-4.4-5.2v-7.8c0-1.4,0.5-2.7,1.6-3.7c1-1,2.4-1.5,3.8-1.5
		c2.9,0,5.3,2.3,5.3,5.2c0,0,0,0,0,0l0,7.8c0,1.4-0.6,2.7-1.6,3.7c-1,1-2.3,1.5-3.7,1.5C19.1,31.4,18.8,31.4,18.5,31.3 M34,15.8
		c-0.1,0-0.3,0-0.4,0c-1.4,0-2.6,1.1-2.6,2.6v7.8c0,1.4,1.1,2.6,2.6,2.6c0,0,0,0,0,0c0.7,0,1.3-0.3,1.8-0.7c0.5-0.5,0.8-1.1,0.8-1.8
		v-7.8C36.1,17.1,35.2,16,34,15.8 M32.6,31.3c-2.5-0.4-4.4-2.6-4.4-5.2v-7.8c0-2.9,2.4-5.2,5.3-5.2c0.3,0,0.6,0,0.9,0.1
		c2.5,0.4,4.4,2.6,4.4,5.2v7.8c0,1.4-0.6,2.7-1.6,3.7c-1,1-2.3,1.5-3.7,1.5C33.2,31.4,32.9,31.4,32.6,31.3 M43.5,31.4
		c-0.6-0.1-1.1-0.7-1.1-1.3V6.6c0-0.7,0.6-1.3,1.3-1.3c0,0,0,0,0.1,0c0.7,0,1.4,0.6,1.4,1.3c0,0,0,0,0,0v13.8l6.3-6.9
		c0.3-0.3,0.8-0.5,1.3-0.4c0.3,0,0.5,0.2,0.7,0.3c0.6,0.5,0.6,1.4,0.1,1.9l-4.7,5.2l4.9,8.9c0.2,0.3,0.2,0.7,0.1,1
		c-0.1,0.3-0.3,0.6-0.7,0.8c-0.3,0.2-0.6,0.2-0.9,0.1c-0.4-0.1-0.7-0.3-1-0.6l-4.4-8l-1.7,1.8V30c0,0.4-0.1,0.7-0.4,1
		C44.3,31.3,43.9,31.4,43.5,31.4 M103.6,31.3c-1.5-0.2-2.8-1.1-3.5-2.4c-0.2-0.3-0.2-0.7-0.1-1c0.1-0.3,0.3-0.6,0.6-0.8
		c0.3-0.2,0.6-0.2,0.9-0.2c0.4,0.1,0.7,0.3,0.9,0.6c0.4,0.6,0.9,1,1.6,1.1c0.8,0.1,1.5-0.1,2-0.6c0.5-0.5,0.8-1.2,0.7-1.8
		c0-0.7-0.4-1.4-1-1.7l-3.7-2.6c-1.2-0.8-2-2.2-2.1-3.6c-0.1-1.5,0.5-2.9,1.6-3.9c1.1-1,2.6-1.5,4-1.3h0c1.5,0.3,2.8,1.1,3.5,2.4
		c0.2,0.3,0.2,0.7,0.1,1c-0.1,0.3-0.3,0.6-0.6,0.8c-0.3,0.2-0.6,0.2-0.9,0.2c-0.4-0.1-0.7-0.3-1-0.6c-0.3-0.5-0.9-0.9-1.5-1
		c-0.7-0.1-1.3,0.1-1.8,0.5c-0.5,0.4-0.7,1.1-0.7,1.7c0,0.6,0.4,1.3,0.9,1.6l3.7,2.5c1.3,0.9,2,2.3,2.1,3.8c0.1,1.5-0.5,3-1.6,4
		c-1.1,1-2.7,1.5-4.2,1.3L103.6,31.3 M114.1,31.4c-0.6-0.1-1.1-0.7-1.1-1.3V6.7c0-0.4,0.1-0.7,0.4-1c0.3-0.3,0.8-0.4,1.2-0.4
		c0.6,0.1,1.1,0.7,1.1,1.3v6.6h2.6c0.3,0,0.6,0,0.9,0.1c2.5,0.4,4.4,2.6,4.4,5.2l0,11.5c0,0.7-0.6,1.3-1.3,1.4c-0.1,0-0.2,0-0.3,0
		c-0.7-0.1-1.1-0.7-1.1-1.3V18.5c0-1.4-1.1-2.6-2.5-2.6c0,0,0,0,0,0h-2.6v14.1c0,0.7-0.6,1.3-1.3,1.3c0,0,0,0,0,0
		C114.3,31.4,114.2,31.4,114.1,31.4 M132.9,15.8c-0.8-0.2-1.7,0.1-2.3,0.7c-0.5,0.5-0.8,1.1-0.8,1.8v7.8c0,1.2,0.9,2.3,2.1,2.5
		c0.8,0.2,1.7-0.1,2.3-0.7c0.5-0.5,0.8-1.1,0.8-1.8v-7.8C135,17.1,134.1,16.1,132.9,15.8 M131.5,31.3c-2.5-0.4-4.4-2.6-4.4-5.2v-7.8
		c0-2.9,2.4-5.2,5.3-5.2c0.3,0,0.6,0,0.9,0.1c2.5,0.4,4.4,2.6,4.4,5.2v7.8c0,1.4-0.6,2.7-1.6,3.7C134.9,31.1,133.2,31.6,131.5,31.3
		 M158.7,14.8c0.1-0.3,0-0.7-0.1-1c-0.2-0.3-0.5-0.5-0.9-0.6c-0.7-0.1-1.4,0.3-1.6,1c-0.9,3.5-1.7,6.9-2.6,10.4l0,0.1l0-0.1
		c-1.1-4.4-2.6-10.3-2.6-10.3c-0.1-0.5-0.5-0.9-1-1c-0.7-0.1-1.4,0.3-1.5,1c0,0.1-1.5,5.9-2.6,10.4l0,0.1l0-0.1
		c-1.1-4.4-2.6-10.3-2.6-10.4c-0.2-0.7-0.9-1.1-1.6-1c-0.7,0.2-1.1,0.9-1,1.6l3.9,15.6c0.2,0.6,0.7,1,1.3,1c0.6,0,1.2-0.4,1.3-1
		c0-0.1,1.5-5.9,2.6-10.4l0-0.1l0,0.1c1.2,4.5,2.6,10.4,2.6,10.4c0.2,0.6,0.7,1,1.3,1c0.6,0,1.2-0.4,1.3-1L158.7,14.8">
  </path>
 </g>
</svg>